<?xml version="1.0" encoding="UTF-8" standalone="no"?>
<!-- Created with Inkscape (http://www.inkscape.org/) -->
<svg
   xmlns:svg="http://www.w3.org/2000/svg"
   xmlns="http://www.w3.org/2000/svg"
   version="1.0"
   width="570"
   height="570"
   id="svg2">
  <defs
     id="defs4" />
  <g
     transform="matrix(0.3843586,0,0,0.3843586,-3.1423519,-3.1461637)"
     id="layer1">
    <path
       d="M 8.1755732,11.565732 C 8.1755732,55.494236 13.246088,96.086373 13.246088,140.01487 C 57.507383,140.01487 80.536153,141.70499 124.79744,141.70499 C 124.79744,114.08328 116.34658,66.229368 116.34658,38.607657 C 88.724866,38.607657 79.741734,36.917536 52.120023,36.917536 C 52.120023,47.899662 50.429853,63.118058 50.429853,74.100184 C 67.069438,74.100184 74.354391,72.410063 90.993976,72.410063 C 89.827964,77.567089 93.736138,100.94153 89.303802,102.83223 C 67.672341,102.83223 55.159608,104.52235 33.528148,104.52235 C 33.528148,82.225306 35.21832,37.243016 35.21832,14.945972 C 74.154948,14.945972 111.87858,18.3806 150.81521,18.3806 C 150.81521,101.57852 150.14999,232.58947 150.14999,315.78739 C 177.77171,315.78739 207.03658,314.09728 234.65829,314.09728 C 234.65829,269.83598 232.96813,207.93786 232.96813,163.67656 C 221.98601,163.67656 218.59776,165.36668 207.61563,165.36668 C 207.61563,198.64585 202.54514,262.22678 202.54514,295.50594 C 197.38811,294.33993 180.77352,277.96672 178.88282,273.53438 C 178.88282,235.26334 180.57298,161.38471 180.57298,123.11367 C 202.87002,123.11367 268.13697,121.42355 290.43401,121.42355 C 290.43401,138.06314 288.74383,167.31842 288.74383,183.958 C 316.36555,183.958 320.27847,187.33824 347.90018,187.33824 C 347.90018,159.71653 346.20999,127.07371 346.20999,99.451988 C 335.22787,99.451988 333.52958,85.931026 322.54746,85.931026 C 322.54746,102.57062 324.23765,150.41721 324.23765,167.0568 C 319.08062,165.89079 300.77563,149.51758 298.88493,145.08524 C 298.88493,123.45378 297.19474,102.49212 297.19474,80.860664 C 319.49178,80.860664 344.19513,82.550786 366.49217,82.550786 C 366.49217,115.82996 368.18235,148.98872 368.18235,182.26788 C 379.16448,182.26788 391.00385,168.74692 401.98598,168.74692 C 401.98598,124.48563 400.2958,93.009671 400.2958,48.748379 C 339.39492,48.748379 265.13619,47.058259 204.23531,47.058259 C 204.23531,58.040385 205.92547,47.906974 205.92547,58.8891 C 222.56506,58.8891 275.48461,57.19898 292.1242,57.19898 C 290.95819,62.356006 261.06279,92.490925 256.63045,94.381627 C 234.99899,94.381627 203.89461,92.691507 182.26315,92.691507 C 182.26315,70.394464 183.95332,38.933136 183.95332,16.636092 C 256.16911,16.636092 341.60145,18.326213 413.81725,18.326213 C 413.81725,107.18159 407.05652,245.52333 407.05652,334.37872 C 373.77736,334.37872 369.34808,336.06884 336.06891,336.06884 C 336.06891,363.69055 334.37873,398.0235 334.37873,425.64521 C 400.93707,425.64521 440.21888,423.9551 506.77722,423.9551 C 506.77722,457.23426 511.84776,512.36745 511.84776,545.64662 C 539.46947,545.64662 551.8333,542.26626 579.45502,542.26626 C 579.45502,531.28413 589.5961,532.9662 589.5961,521.98408 C 572.95651,521.98408 543.69898,523.67427 527.05939,523.67427 C 528.2254,518.51724 547.97977,493.45153 552.41211,491.56082 C 574.04357,491.56082 588.24682,494.94118 609.87828,494.94118 C 609.87828,511.58077 611.56846,518.86594 611.56846,535.50553 C 628.20805,535.50553 679.43794,540.57608 696.07753,540.57608 C 696.07753,573.85525 701.14806,627.29978 701.14806,660.57895 C 745.40936,660.57895 753.2271,658.88877 797.48839,658.88877 C 797.48839,564.70872 794.77252,440.38961 794.77252,346.20956 C 750.51123,346.20956 743.71918,345.49 699.45788,345.49 L 709.68663,361.16503 C 716.1855,371.12422 758.87646,361.42064 775.51605,361.42064 C 775.51605,433.63644 780.58658,571.46134 780.58658,643.67714 C 758.28954,643.67714 733.58619,647.05749 711.28915,647.05749 C 711.28915,613.77833 709.59897,560.33379 709.59897,527.05463 C 692.95938,527.05463 670.46258,525.36445 653.82299,525.36445 C 653.82299,508.72486 652.13281,471.01685 652.13281,454.37726 C 618.85364,454.37726 558.64838,450.99701 525.36921,450.99701 C 525.36921,384.43867 521.98885,287.699 521.98885,221.14066 C 494.36714,221.14066 495.52477,210.99993 467.90305,210.99993 C 467.90305,238.62165 466.21287,271.26448 466.21287,298.88619 C 477.195,298.88619 473.82274,297.19606 484.80486,297.19606 C 484.80486,280.55647 486.49504,283.41348 486.49504,266.7739 C 491.65207,267.93991 496.43561,267.41193 498.32632,271.84426 C 498.32632,310.11531 496.63613,363.71248 496.63613,401.98353 L 483.06047,399.7914 C 483.06047,383.8174 485.77561,341.23694 485.77561,325.26294 C 474.79349,325.26294 456.91282,332.6886 445.93069,332.6886 C 445.93069,349.32819 447.62087,395.48466 447.62087,412.12425 C 408.68424,412.12425 395.28772,405.36376 356.35109,405.36376 C 357.5171,400.20674 358.67948,375.14218 363.11182,373.25148 C 395.7254,373.25148 389.65457,371.56136 422.26816,371.56136 C 422.26816,321.6426 423.95833,245.7076 423.95833,195.78885 C 473.87709,195.78885 556.57916,207.61969 606.49791,207.61969 C 606.49791,163.3584 603.11755,87.93931 603.11755,43.678017 C 558.85626,43.678017 493.57234,45.368137 449.31105,45.368137 C 449.31105,72.989849 451.00124,110.70304 451.00124,138.32475 C 478.62295,138.32475 518.02968,136.63464 545.65139,136.63464 C 545.65139,125.65251 547.34157,117.1946 547.34157,106.21247 C 530.70198,106.21247 496.3739,107.90259 479.73432,107.90259 C 480.90033,102.74556 490.51361,72.610646 494.94595,70.719943 C 516.57741,70.719943 544.3021,67.339703 565.93356,67.339703 C 565.93356,89.636743 564.24338,124.47832 564.24338,146.77536 C 525.30675,146.77536 466.27533,148.46548 427.3387,148.46548 C 427.3387,109.52885 425.64851,58.952961 425.64851,20.016333 C 481.22473,20.016333 557.68242,21.706453 613.25864,21.706453 C 613.25864,71.625208 614.94882,120.51829 614.94882,170.43704 C 625.93094,170.43704 632.69978,172.12716 643.6819,172.12716 C 643.6819,155.48757 641.99172,149.89399 641.99172,133.2544 C 658.63131,133.2544 687.88884,131.56428 704.52843,131.56428 C 704.52843,103.94256 702.83824,78.06021 702.83824,50.438499 C 691.85612,50.438499 688.46765,52.128619 677.48553,52.128619 C 677.48553,68.768205 675.79535,96.333366 675.79535,112.97296 L 651.66468,110.8896 C 651.66468,89.258138 655.51317,45.028034 655.51317,23.396573 C 677.81021,23.396573 714.34483,25.086694 736.64187,25.086694 C 736.64187,41.726279 745.09278,59.150719 745.09278,75.790304 C 822.63325,75.790304 823.04898,77.480424 900.58945,77.480424 C 900.58945,66.498298 902.27964,64.800866 902.27964,53.81874 C 835.7213,53.81874 821.79221,55.50886 755.23387,55.50886 C 756.39988,50.351834 762.63279,28.667517 767.06513,26.776814 C 838.61535,26.776814 852.70177,28.466935 924.25199,28.466935 C 924.25199,45.10652 922.56181,62.530959 922.56181,79.170544 C 933.54394,79.170544 938.62258,69.029823 949.60471,69.029823 C 949.60471,52.390238 951.2949,46.79664 951.2949,30.157055 C 1090.069,30.157055 1260.4055,31.847176 1399.1796,31.847176 C 1399.1796,54.144219 1417.7709,88.985787 1417.7709,111.28283 C 1334.5729,111.28283 1232.2397,109.59271 1149.0418,109.59271 C 1149.0417,120.57483 1150.7319,115.51178 1150.7319,126.49391 C 1233.9297,126.49391 1321.0519,124.80379 1404.2499,124.80379 C 1404.2499,141.44338 1405.94,172.38877 1405.9401,189.02836 C 1416.9221,189.02836 1415.2394,190.71849 1426.2215,190.71849 C 1426.2214,140.79974 1429.6018,83.45605 1429.6018,33.537296 C 1434.7588,34.703313 1464.8936,30.795076 1466.7844,35.227416 C 1466.7844,90.138046 1468.4744,161.15966 1468.4745,216.07029 C 1446.1774,216.07029 1404.5754,214.38017 1382.2784,214.38017 C 1382.2784,197.74058 1380.5881,168.48531 1380.5882,151.84572 C 1297.3903,151.84572 1220.4088,150.1556 1137.211,150.1556 C 1137.211,127.85856 1135.5208,84.566381 1135.5208,62.269341 C 1218.7187,62.269341 1277.1089,60.579221 1360.3069,60.579221 C 1360.3068,49.597095 1365.3772,52.970023 1365.3772,41.987897 C 1237.918,41.987897 1112.5577,40.297777 985.09852,40.297777 C 985.09842,51.279903 983.40834,54.667456 983.40834,65.649582 C 1016.6875,65.649582 1056.6083,63.959461 1089.8876,63.959461 C 1089.8875,97.238627 1091.5776,164.1998 1091.5777,197.47897 C 1141.4964,197.47897 1190.3895,199.16909 1240.3083,199.16909 C 1240.3083,221.46613 1241.9984,257.99782 1241.9984,280.29486 C 1203.0618,280.29486 1181.2179,278.60474 1142.2813,278.60474 C 1143.4473,273.44771 1139.5391,251.7634 1143.9715,249.87269 C 1176.585,249.87269 1182.3428,246.49246 1214.9564,246.49246 C 1214.9563,235.51033 1213.2664,237.19314 1213.2664,226.21101 C 1169.005,226.21101 1139.2192,212.69005 1094.9579,212.69005 C 1094.9578,240.31177 1093.2678,289.8558 1093.2678,317.47751 C 1154.1687,317.47751 1194.6185,310.71703 1255.5194,310.71703 C 1255.5193,277.43786 1253.8292,218.92729 1253.8293,185.64812 C 1276.1263,185.64812 1326.1789,180.57777 1348.476,180.57777 C 1348.476,219.51439 1350.1661,300.51245 1350.1661,339.44907 C 1345.009,338.28306 1299.663,326.98021 1297.7723,322.54787 C 1297.7722,289.93428 1299.4625,260.51472 1299.4625,227.90113 C 1288.4803,227.90113 1288.4731,244.80234 1277.4909,244.80234 C 1277.4908,278.0815 1279.1809,307.86003 1279.181,341.13919 C 1212.6226,341.13919 1175.0372,342.82931 1108.4789,342.82931 C 1108.4788,353.81144 1110.169,353.81876 1110.169,364.80088 C 1204.349,364.80088 1274.5773,363.11076 1368.7574,363.11076 C 1368.7573,329.8316 1351.8561,294.98271 1351.8562,261.70354 C 1374.1532,261.70354 1451.2477,268.46403 1473.5449,268.46403 C 1473.5449,290.76107 1475.235,322.2224 1475.235,344.51944 C 1470.0779,343.35343 1453.4639,325.29009 1451.5733,320.85775 C 1451.5733,304.88375 1449.8832,291.1985 1449.8832,275.2245 C 1438.9009,275.2245 1430.4431,276.91462 1419.461,276.91462 C 1419.4609,304.53634 1421.1511,332.1088 1421.1511,359.73051 C 1437.7906,359.73051 1453.525,358.0404 1470.1647,358.0404 C 1470.1647,380.33744 1460.024,438.8407 1460.024,461.13774 C 1426.7447,461.13774 1376.6847,462.82786 1343.4056,462.82786 C 1343.4055,496.10702 1341.7154,551.24162 1341.7155,584.52079 C 1325.0759,584.52079 1307.6514,582.83061 1291.0118,582.83061 C 1291.0117,616.10977 1284.2513,671.24449 1284.2514,704.52366 C 1279.0943,703.35764 1274.3112,683.60327 1272.4206,679.17094 C 1272.4206,640.8999 1270.7304,592.36856 1270.7304,554.09752 C 1287.37,554.09752 1286.2031,552.40734 1302.8427,552.40734 C 1302.8426,541.42522 1316.3637,529.58585 1316.3637,518.60372 C 1299.7241,518.60372 1285.6798,520.2939 1269.0403,520.2939 C 1269.0403,497.99686 1267.3501,456.39285 1267.3501,434.09581 C 1272.5072,435.26182 1292.5014,434.73384 1294.3921,439.16618 C 1294.3921,455.14018 1297.6186,472.36035 1297.6186,488.33436 L 1315.3632,488.64216 C 1315.3632,472.00258 1307.913,445.66504 1307.9131,429.02545 C 1341.1923,429.02545 1401.3929,427.33533 1434.6721,427.33533 C 1434.672,416.35321 1448.1931,399.44469 1448.1931,388.46256 C 1387.2922,388.46256 1309.6598,390.15268 1248.7589,390.15268 C 1248.7589,406.79227 1247.0687,442.80803 1247.0688,459.44762 C 1241.9117,458.28161 1228.6779,448.66887 1226.7873,444.23654 C 1226.7873,428.26254 1225.0972,409.50693 1225.0972,393.53293 C 1180.8359,393.53293 1142.5994,395.22305 1098.3381,395.22305 C 1098.338,445.1418 1096.6481,531.22167 1096.6481,581.14043 C 1030.0897,581.14043 957.00671,579.45025 890.44837,579.45025 C 890.44837,607.07196 888.75819,636.33759 888.75819,663.95931 C 899.74031,663.95931 894.67787,665.6495 905.66,665.6495 C 905.66,649.00991 903.96982,618.06219 903.96982,601.4226 C 909.12685,602.58861 946.02382,618.96262 947.91453,623.39496 C 947.91453,639.36896 946.22435,656.43621 946.22435,672.41021 C 1040.4044,672.41021 1129.227,674.1004 1223.4071,674.1004 C 1223.4071,638.1589 1221.7168,569.75686 1221.7169,533.81535 C 1210.7347,533.81535 1209.0374,532.12517 1198.0552,532.12517 C 1198.0552,557.08455 1199.7453,625.47849 1199.7454,650.43786 C 1127.5295,650.43786 1031.9617,648.74767 959.7458,648.74767 C 960.91181,643.59065 970.5251,596.55258 974.95743,594.66188 C 1024.2106,594.66188 1089.6478,596.35206 1138.901,596.35206 C 1138.9009,546.43331 1140.5912,480.63433 1140.5912,430.71557 C 1162.8882,430.71557 1182.5186,432.40569 1204.8157,432.40569 C 1203.6496,437.56272 1194.037,444.03595 1189.6047,445.92666 C 1173.6307,445.92666 1180.2268,447.61678 1164.2528,447.61678 C 1164.2527,491.87807 1162.4863,553.78095 1162.4863,598.04224 C 1173.4683,598.04224 1170.4032,599.73242 1181.3854,599.73242 C 1181.3853,566.45325 1186.2243,514.6989 1186.2244,481.41973 C 1191.3814,482.58574 1204.6152,495.57939 1206.5059,500.01173 C 1206.5059,507.66594 1208.9641,511.64275 1208.9642,519.29696 L 1218.7208,517.99085 C 1218.7208,509.67106 1220.0268,477.90825 1220.0269,469.58846 C 1225.1839,470.75448 1243.4879,493.8892 1245.3786,498.32154 C 1245.3785,597.49346 1243.6885,747.32696 1243.6886,846.49888 C 1276.9677,846.49888 1296.6054,853.25961 1329.8847,853.25961 C 1329.8846,903.17836 1323.1242,918.27319 1323.1242,968.19194 C 1339.7637,968.19194 1392.6807,971.5723 1409.3203,971.5723 C 1409.3203,993.86934 1407.6301,1005.0512 1407.6301,1027.3483 C 1318.7747,1027.3483 1209.1651,1029.0384 1120.3098,1029.0384 C 1120.3097,979.11968 1118.6196,962.33471 1118.6196,912.41596 C 1074.3583,912.41596 1034.4303,914.10614 990.16907,914.10614 C 990.16897,925.08826 991.85924,916.64546 991.85924,927.62758 C 1008.4987,927.62758 1032.6851,929.31777 1049.3247,929.31777 C 1049.3247,945.95736 1047.6344,961.69341 1047.6345,978.333 C 1058.6166,978.333 1051.8635,973.26248 1062.8456,973.26248 C 1062.8456,956.62289 1061.1554,949.33772 1061.1555,932.69813 C 1066.3125,933.86414 1101.5178,936.7167 1103.4086,941.14903 C 1103.4086,979.42008 1101.7184,992.45757 1101.7184,1030.7286 C 1096.5613,1029.5626 1083.3276,1028.4003 1081.4369,1023.9679 C 1081.4369,1007.9939 1079.7469,1014.5891 1079.7469,998.61517 C 1068.7647,998.61517 1051.8562,996.92499 1040.8741,996.92499 C 1040.874,1063.4834 1035.8037,1121.3571 1035.8037,1187.9154 C 863.75036,1187.9258 710.94397,1198.0462 538.89067,1198.0565 C 540.05668,1192.8987 546.28959,1181.3581 550.72193,1179.4646 C 566.69593,1179.4549 571.93192,1176.0928 587.90592,1176.0842 C 587.90592,1159.4446 586.21574,1148.779 586.21574,1132.1395 C 591.37277,1133.3055 614.7483,1132.7777 616.63901,1137.2101 C 616.63901,1153.1841 618.32919,1158.4201 618.32919,1174.3941 C 629.31131,1174.394 637.77032,1172.7038 648.75245,1172.7038 C 648.75245,1089.5058 650.44263,1017.5863 650.44263,934.38831 C 733.64055,934.38831 783.58791,936.0785 866.78583,936.0785 C 866.78583,908.45678 865.09565,906.23404 865.09565,878.61233 C 765.25814,878.61233 684.36306,880.30252 584.52555,880.30252 C 584.52555,863.66293 577.76484,819.19376 577.76484,802.55418 C 550.14312,802.55418 537.77929,811.00508 510.15758,811.00508 C 510.15758,844.28425 508.4674,885.89751 508.4674,919.17668 C 475.18823,919.17668 443.71606,917.4865 410.43689,917.4865 C 410.43689,961.74779 412.12707,976.32623 412.12707,1020.5875 C 445.40624,1020.5875 481.94896,1022.2777 515.22813,1022.2777 C 515.22813,1044.5747 516.91831,1059.1369 516.91831,1081.4341 C 500.27872,1081.4341 471.02119,1083.1241 454.3816,1083.1242 C 454.3816,1099.7741 452.69142,1144.2226 452.69142,1160.8726 C 419.41225,1160.8623 406.53207,1152.4313 373.2529,1152.4216 C 373.2529,1235.6195 374.94308,1234.8606 374.94308,1318.0586 C 336.00645,1318.069 293.87692,1329.8795 254.94029,1329.8899 C 254.94029,1313.2399 251.55995,1307.6659 251.55995,1291.016 C 234.92036,1291.0251 202.28306,1292.696 185.64347,1292.7062 C 185.64347,1209.4979 187.33364,1168.0227 187.33364,1084.8145 C 176.35152,1084.8144 159.44195,1086.5046 148.45982,1086.5046 C 148.45982,1197.3242 146.76966,1239.3521 146.76966,1350.1719 C 157.75179,1350.1718 179.73185,1345.1013 190.71397,1345.1013 C 190.71397,1328.4721 192.40414,1326.2369 192.40414,1309.6078 C 197.56117,1310.7738 215.86593,1308.5558 217.75663,1312.9882 C 217.75663,1328.9518 216.06647,1318.9967 216.06647,1334.9603 C 293.60694,1334.9602 366.70005,1336.6505 444.24051,1336.6505 C 444.24051,1259.11 435.78961,1267.1461 435.78961,1189.6057 C 424.80748,1189.6056 426.48955,1196.3664 415.50743,1196.3664 C 415.50743,1262.9247 417.19761,1253.1905 417.19761,1319.7489 C 411.95416,1319.0117 390.32207,1317.1144 386.77435,1314.6783 C 386.77435,1242.7953 385.08416,1254.7279 385.08416,1182.8449 C 407.3812,1182.8449 438.84529,1184.5352 461.14233,1184.5352 C 461.14233,1267.7227 462.8325,1258.5334 462.8325,1341.721 C 473.81463,1341.7209 480.58346,1340.0309 491.56559,1340.0309 C 491.56559,1240.1933 493.25577,1230.2867 493.25577,1130.4493 C 509.89536,1130.4493 503.65908,1123.6885 520.29867,1123.6886 C 520.29867,1079.4272 523.67903,1046.2568 523.67903,1001.9955 C 490.39987,1001.9955 472.44913,1000.3054 439.16997,1000.3054 C 439.16997,978.00831 437.47979,960.06572 437.47979,937.76868 C 487.39854,937.76868 541.35984,932.26586 591.27859,932.26586 L 592.36675,922.7037 C 575.72716,922.7037 545.38916,922.55704 528.74957,922.55704 C 528.74957,900.26 533.82012,856.96466 533.82012,834.66762 C 538.97715,835.83363 552.2116,855.588 554.1023,860.02034 C 554.1023,875.99434 555.79248,882.9205 555.79248,898.89451 C 655.62999,898.89451 734.83488,897.20433 834.67239,897.20433 C 833.50637,902.36135 828.96364,918.97616 824.5313,920.86687 C 741.99896,920.86687 702.55171,915.79632 620.01936,915.79632 C 620.01936,932.43591 621.70954,936.34072 621.70954,952.98031 C 571.79079,952.98031 507.68072,954.67049 457.76197,954.67049 C 457.76197,965.65261 456.07178,955.51963 456.07178,966.50175 C 505.99053,966.50175 573.48097,969.88212 623.39972,969.88212 C 623.39972,1008.8187 625.08991,1052.6384 625.08991,1091.5751 C 619.93289,1090.409 596.55735,1080.7958 594.66665,1076.3635 C 594.66665,1043.7499 599.73718,1021.0877 599.73718,988.47408 C 588.75506,988.47408 571.84515,986.7839 560.86302,986.7839 C 560.86302,1036.7027 559.17284,1092.3619 559.17284,1142.2806 C 542.53325,1142.2806 535.24807,1149.0412 518.60849,1149.0413 C 518.60849,1176.663 513.53795,1178.8857 513.53795,1206.5075 C 530.17754,1206.5166 540.84307,1216.6384 557.48266,1216.6486 C 557.48266,1266.557 562.5532,1249.5584 562.5532,1299.4668 C 590.17492,1299.4667 617.75037,1301.157 645.37208,1301.157 C 645.37208,1267.8882 647.06226,1283.7208 647.06226,1250.4521 C 685.99889,1250.4521 739.95977,1248.7618 778.8964,1248.7618 C 778.8964,1315.3098 777.20622,1327.5683 777.20622,1394.1162 C 788.18835,1394.1161 778.05536,1395.8065 789.03749,1395.8065 C 789.03749,1318.266 787.34731,1312.7809 787.34731,1235.2405 C 726.44643,1235.2405 687.68097,1231.8602 626.78009,1231.8602 C 626.78009,1265.1394 628.47027,1256.0466 628.47027,1289.3258 C 623.22682,1288.5886 584.69291,1286.6914 581.14519,1284.2554 C 581.14519,1245.6515 582.83537,1251.8721 582.83537,1213.2682 C 655.05117,1213.2682 730.34315,1211.578 802.55894,1211.578 C 802.55894,1294.7655 800.86876,1314.309 800.86876,1397.4966 C 811.85089,1397.4965 810.16881,1399.1868 821.15093,1399.1868 C 821.15093,1315.9992 822.84112,1291.3851 822.84112,1208.1976 C 895.05692,1208.1976 973.72859,1209.8878 1045.9444,1209.8878 C 1044.7738,1215.0299 1028.4117,1224.9161 1023.9727,1226.7897 C 958.07988,1226.7896 902.25532,1228.4798 836.36256,1228.4798 C 836.36256,1272.7411 838.05274,1251.8251 838.05274,1296.0865 C 849.03487,1296.0864 859.18406,1294.3963 870.16619,1294.3963 C 870.16619,1261.1171 868.47601,1275.2804 868.47601,1242.0012 C 873.63303,1243.1672 878.41658,1247.7098 880.30728,1252.1422 C 880.30728,1307.0528 878.6171,1315.5431 878.6171,1370.4539 C 873.37366,1369.7167 861.88264,1364.439 858.33492,1362.003 C 858.33492,1345.6858 853.26438,1342.8266 853.26438,1326.5095 C 842.28225,1326.5094 850.72506,1324.8193 839.74293,1324.8193 C 839.74293,1352.441 841.43311,1373.2552 841.43311,1400.8769 C 869.05483,1400.8768 889.86955,1402.5672 917.49126,1402.5672 C 917.49126,1336.0088 915.80108,1305.1791 915.80108,1238.6208 C 965.71984,1238.6207 1004.4763,1236.9307 1054.395,1236.9307 C 1054.395,1170.3723 1059.4653,1122.6397 1059.4654,1056.0813 C 1131.6812,1056.0813 1201.8948,1054.3912 1274.1106,1054.3912 C 1274.1105,1109.9673 1275.8008,1169.5232 1275.8008,1225.0994 C 1270.5573,1224.3622 1253.9966,1224.1552 1250.449,1221.7191 C 1250.449,1172.1228 1252.139,1146.242 1252.1391,1096.6457 C 1191.2382,1096.6457 1149.0983,1098.3358 1088.1974,1098.3358 C 1088.1974,1159.2367 1086.5073,1179.4102 1086.5073,1240.3111 C 1114.1289,1240.311 1148.4619,1245.3815 1176.0837,1245.3815 C 1176.0836,1226.0899 1177.7738,1222.4186 1177.7738,1203.1271 C 1166.7916,1203.1271 1163.4041,1204.8172 1152.422,1204.8172 C 1152.4219,1213.1266 1154.1121,1215.0998 1154.1121,1223.4093 C 1148.955,1222.2432 1117.13,1224.4612 1115.2394,1220.0289 C 1115.2393,1181.7578 1116.9295,1167.0301 1116.9295,1128.7591 C 1122.0865,1129.9251 1160.3769,1127.983 1162.2676,1132.4154 C 1162.2675,1156.7091 1165.0866,1168.115 1165.0866,1192.4088 L 1173.8291,1187.8901 C 1173.8291,1162.9307 1172.7034,1138.5068 1172.7035,1113.5475 C 1195.0005,1113.5475 1211.2507,1111.8573 1233.5478,1111.8573 C 1233.5477,1161.776 1235.2379,1193.7726 1235.2379,1243.6914 C 1262.8596,1243.6913 1281.9814,1247.0717 1309.6032,1247.0717 C 1309.6032,1180.5133 1311.2932,1115.8789 1311.2933,1049.3206 C 1344.5725,1049.3206 1403.083,1047.6305 1436.3623,1047.6305 C 1436.3622,970.08996 1438.0523,949.39207 1438.0523,871.8516 C 1427.0701,871.8516 1421.9926,876.92215 1411.0104,876.92215 C 1411.0103,910.20131 1412.7005,911.25024 1412.7006,944.5294 C 1407.5435,943.36339 1365.5777,947.27155 1363.6871,942.83921 C 1363.6871,887.92858 1361.9968,832.11209 1361.9969,777.20146 C 1378.6364,777.20146 1423.1029,792.41308 1439.7425,792.41308 C 1439.7424,764.79137 1443.1227,708.48283 1443.1227,680.86112 C 1432.1404,680.86112 1425.3728,682.55131 1414.3906,682.55131 C 1414.3906,699.19089 1416.0807,731.82878 1416.0808,748.46837 C 1382.8015,748.46837 1314.1503,755.2291 1280.8711,755.2291 C 1280.871,766.21123 1282.5613,783.12114 1282.5613,794.10327 C 1299.2008,794.10327 1308.1747,795.79345 1324.8143,795.79345 C 1323.6482,800.95048 1325.8663,814.18492 1321.434,816.07562 C 1299.8025,816.07562 1282.2211,814.38544 1260.5898,814.38544 C 1260.5898,792.0884 1262.2798,733.58142 1262.2798,711.28438 C 1295.5589,711.28438 1321.9572,712.97456 1355.2364,712.97456 C 1355.2363,701.99243 1353.5464,696.91379 1353.5464,685.93166 C 1336.9067,685.93166 1334.6933,684.24149 1318.0538,684.24149 C 1318.0538,661.94445 1319.744,637.24109 1319.744,614.94405 C 1336.3835,614.94405 1340.2869,611.56369 1356.9266,611.56369 C 1356.9265,578.28453 1358.6166,511.31854 1358.6167,478.03937 C 1380.9137,478.03937 1449.5577,476.34919 1471.8548,476.34919 C 1470.6887,481.50622 1461.0759,515.02284 1456.6437,516.91354 C 1440.6697,516.91354 1408.3931,515.22336 1392.4191,515.22336 C 1392.4191,534.52528 1395.3574,561.10942 1395.3575,580.41133 C 1406.3395,580.41133 1436.5392,583.34981 1447.5213,583.34981 C 1447.5213,575.03002 1441.4326,557.34677 1441.4326,549.02698 C 1446.5896,550.193 1460.937,555.92659 1462.8277,560.35893 C 1462.8276,581.99039 1466.9569,616.22614 1466.9569,637.85761 C 1461.7998,636.6916 1446.7034,629.51747 1444.8128,625.08514 C 1444.8128,617.43092 1443.0077,604.87014 1443.0078,597.21592 C 1432.0255,597.21592 1406.7815,593.2788 1395.7994,593.2788 C 1395.7994,601.59859 1397.4894,631.97698 1397.4894,640.29677 C 1380.8498,640.29677 1349.9044,635.22623 1333.2649,635.22623 C 1333.2648,646.20836 1331.5748,659.73791 1331.5748,670.72003 C 1364.854,670.72003 1447.0261,677.48076 1480.3054,677.48076 C 1480.3054,716.41739 1481.9955,783.89972 1481.9955,822.83634 C 1465.3559,822.83634 1417.5093,821.14617 1400.8697,821.14617 C 1400.8696,832.12829 1402.5598,833.82658 1402.5598,844.8087 C 1419.1993,844.8087 1459.8713,842.813 1476.5109,842.813 C 1476.5108,931.66838 1478.2011,995.90477 1478.2011,1084.7602 C 1444.9218,1084.7601 1368.2342,1088.1946 1334.955,1088.1947 C 1334.9549,1115.8164 1336.6452,1138.3214 1336.6452,1165.9431 C 1364.3084,1165.9431 1416.1112,1165.9563 1443.7746,1165.9564 L 1448.5528,1151.8761 C 1432.1212,1151.8761 1383.4988,1150.7314 1367.0673,1150.7315 C 1368.2333,1145.5744 1360.5319,1109.9154 1364.9643,1108.0248 C 1386.5957,1108.0247 1456.9837,1110.3539 1478.6152,1110.3539 C 1478.6151,1199.2092 1476.9252,1232.5836 1476.9252,1321.439 C 1377.0875,1321.4389 1267.4706,1323.1291 1167.6331,1323.1292 C 1167.633,1334.1112 1162.5627,1327.3585 1162.5627,1338.3406 C 1212.4815,1338.3505 1239.4029,1358.6123 1289.3218,1358.6226 C 1289.3217,1380.9092 1292.7019,1414.0838 1292.702,1436.3706 C 1242.7831,1436.3705 1209.1013,1431.3001 1159.1825,1431.3001 C 1159.1824,1442.2822 1157.4923,1445.6705 1157.4923,1456.6527 C 1218.3932,1456.6527 1245.3221,1454.9625 1306.223,1454.9625 C 1306.2229,1421.6937 1304.5327,1390.2012 1304.5328,1356.9325 C 1343.4695,1356.9325 1426.1577,1355.2423 1465.0943,1355.2423 C 1465.0943,1394.1686 1463.4041,1429.5576 1463.4042,1468.4838 C 1458.1607,1467.7466 1436.5296,1467.5395 1432.982,1465.1035 C 1432.982,1432.1467 1431.2917,1398.3401 1431.2918,1365.3833 C 1403.6701,1365.3832 1355.8162,1363.6932 1328.1945,1363.6932 C 1328.1944,1374.6752 1326.5044,1374.6833 1326.5044,1385.6654 C 1343.1439,1385.6745 1370.7091,1414.3882 1387.3487,1414.3983 C 1387.3487,1447.6671 1385.6586,1455.497 1385.6586,1488.7659 C 1413.2802,1488.7658 1463.5439,1488.4605 1491.1657,1488.4605 L 1489.7809,8.8506612 C 996.25078,8.8506612 503.39583,8.1854906 9.8657448,8.1854906 L 8.1755732,11.565732 z M 741.71241,119.73343 C 741.71241,136.04022 738.33205,137.22905 738.33205,153.53584 C 721.69247,153.53584 700.88584,155.22596 684.24625,155.22596 C 684.24625,171.86555 682.55607,202.81094 682.55607,219.45053 C 649.27691,219.45053 607.66363,217.76041 574.38447,217.76041 C 574.38447,278.66129 572.69429,352.91349 572.69429,413.81437 C 605.97345,413.81437 647.58673,418.88473 680.86589,418.88473 C 680.86589,435.52432 674.10517,458.01941 674.10517,474.659 C 685.08729,474.659 712.1383,472.96882 723.12042,472.96882 C 723.12042,456.32924 724.8106,437.21444 724.8106,420.57485 C 729.96763,421.74086 733.06098,438.11408 734.95169,442.54642 C 734.95169,491.79959 733.26151,558.93016 733.26151,608.18332 C 744.24363,608.18332 754.39282,609.8735 765.37495,609.8735 C 765.37495,548.97262 763.68477,464.57453 763.68477,403.67364 C 713.76602,403.67364 647.96576,408.74401 598.04701,408.74401 C 598.04701,369.80738 596.35683,292.18957 596.35683,253.25294 C 618.65387,253.25294 656.87866,254.94306 679.1757,254.94306 C 678.00969,260.10009 676.84732,280.09428 672.41499,281.98498 C 656.44099,281.98498 654.58536,283.67511 638.61135,283.67511 C 638.61135,311.29682 640.30154,352.39025 640.30154,380.01197 C 651.28367,380.01197 647.91141,378.32185 658.89353,378.32185 C 658.89353,361.68226 667.34444,317.2159 667.34444,300.57631 C 722.92066,300.57631 748.6729,309.02691 804.24912,309.02691 C 804.24912,342.30607 805.9393,383.91544 805.9393,417.19461 C 822.57889,417.19461 826.4837,415.50449 843.12329,415.50449 C 843.12329,498.70241 844.81347,641.60791 844.81347,724.80583 C 878.09264,724.80583 902.8041,726.49601 936.08326,726.49601 C 936.08326,743.1356 934.39308,767.32259 934.39308,783.96217 C 945.37521,783.96217 945.38331,782.272 956.36543,782.272 C 956.36543,765.63241 958.05562,744.82578 958.05562,728.18619 C 996.9923,728.18619 1061.0916,729.87638 1100.0283,729.87638 C 1098.8622,735.03341 1089.2495,739.81694 1084.8172,741.70765 C 1052.2036,741.70765 1014.3316,743.39783 981.71816,743.39783 C 981.71816,760.03741 980.02787,807.88695 980.02797,824.52653 C 957.73088,824.52653 931.3374,826.21671 909.04036,826.21671 C 909.04036,809.57713 910.73055,778.62941 910.73055,761.98983 C 877.45138,761.98983 851.04974,756.91928 817.77057,756.91928 C 817.77057,673.72136 816.08039,532.50482 816.08039,449.30689 C 805.09827,449.30689 818.61161,452.68714 807.62949,452.68714 C 807.62949,546.86719 809.31967,686.40177 809.31967,780.58182 C 842.59883,780.58182 848.71829,778.89164 881.99746,778.89164 C 880.83145,784.04866 876.28871,807.4242 871.85638,809.3149 C 833.58533,809.3149 830.6889,804.24435 792.41786,804.24435 C 792.41786,770.96519 790.72767,731.04211 790.72767,697.76294 C 707.52975,697.76294 627.15912,696.07275 543.9612,696.07275 C 543.9612,673.77571 540.58084,638.93127 540.58084,616.63423 C 562.87789,616.63423 607.86341,606.49315 630.16045,606.49315 C 628.99444,611.65017 612.62043,640.09625 608.18809,641.98696 C 592.21409,641.98696 585.28793,645.36732 569.31393,645.36732 C 569.31393,656.34944 567.62374,656.35755 567.62374,667.33967 C 595.24546,667.33967 634.65218,675.79058 662.27389,675.79058 C 662.27389,648.16887 660.58371,605.38177 660.58371,577.76006 C 616.32242,577.76006 544.27779,562.54844 500.0165,562.54844 C 500.0165,606.80973 505.08703,688.99545 505.08703,733.25674 C 588.28495,733.25674 685.5574,731.56656 768.75532,731.56656 C 768.75532,753.8636 773.82586,776.87677 773.82586,799.17381 C 734.88923,799.17381 704.59089,797.48363 665.65426,797.48363 C 666.82027,792.3266 666.29246,787.54307 670.7248,785.65236 C 703.33839,785.65236 719.23992,787.34254 751.85351,787.34254 C 751.85351,776.36042 753.54369,750.99959 753.54369,740.01747 C 670.34577,740.01747 556.17151,738.32729 472.97359,738.32729 C 472.97359,655.12937 483.11468,539.2653 483.11468,456.06738 C 422.2138,456.06738 378.3778,457.7575 317.47692,457.7575 C 317.47692,491.03667 325.92782,541.10054 325.92782,574.3797 C 303.63078,574.3797 251.88483,576.06988 229.58779,576.06988 C 229.58779,542.79071 253.25012,497.79714 253.25012,464.51798 C 236.61053,464.51798 214.11423,466.2081 197.47464,466.2081 C 197.47464,449.56851 195.78448,427.07372 195.78448,410.43413 C 184.80235,410.43413 156.06162,407.05389 145.07949,407.05389 C 145.07949,440.33306 143.38933,480.25401 143.38933,513.53317 C 138.2323,512.36716 130.0685,506.13424 128.17779,501.70191 C 128.17779,463.43087 126.48762,408.14228 126.48762,369.87124 C 165.42425,369.87124 243.04648,368.18112 281.98311,368.18112 C 280.81709,373.33815 262.75295,389.95211 258.32062,391.84281 C 242.34662,391.84281 242.18147,385.08232 226.20746,385.08232 C 226.20746,396.06445 227.89763,411.28285 227.89763,422.26498 C 244.53722,422.26498 263.65334,435.78593 280.29293,435.78593 C 280.29293,469.0651 278.60275,503.91654 278.60275,537.19571 C 289.58487,537.19571 289.59298,538.8859 300.57511,538.8859 C 300.57511,455.68798 302.26529,339.8311 302.26529,256.63318 C 324.56233,256.63318 354.33622,258.3233 376.63326,258.3233 C 375.46725,263.48033 369.23433,283.47453 364.80199,285.36523 C 348.82799,285.36523 331.76074,287.05535 315.78674,287.05535 C 315.78674,298.03747 319.1671,294.66454 319.1671,305.64667 C 346.78881,305.64667 360.84282,319.16763 388.46453,319.16763 C 388.46453,291.54592 390.15471,257.21297 390.15471,229.59125 C 345.89342,229.59125 311.03277,231.28137 266.77147,231.28137 C 266.77147,264.56054 260.01079,297.71931 260.01079,330.99848 C 221.07416,330.99848 156.97339,325.92811 118.03676,325.92811 C 118.03676,292.64894 114.65641,266.25066 114.65641,232.97149 C 87.034693,232.97149 74.671225,234.66161 47.049514,234.66161 C 47.049514,262.28333 48.739684,274.64472 48.739684,302.26643 C 59.72181,302.26643 61.419939,303.95655 72.402065,303.95655 C 72.402065,287.31696 70.711892,276.65301 70.711892,260.01342 C 75.868918,261.17943 107.69518,265.72181 109.58588,270.15415 C 109.58588,352.68649 104.51537,461.42409 104.51537,543.95644 C 132.13708,543.95644 137.73977,559.16807 165.36148,559.16807 C 165.36148,542.52848 167.05165,496.36914 167.05165,479.72955 C 172.20868,480.89556 198.96427,492.19903 200.85498,496.63136 C 200.85498,529.24495 199.16481,572.18938 199.16481,604.80297 C 232.44397,604.80297 296.02902,603.11279 329.30818,603.11279 C 329.30818,619.75238 327.618,645.62954 327.618,662.26913 C 338.60013,662.26913 338.60824,669.02985 349.59036,669.02985 C 349.59036,652.39027 344.51981,629.89346 344.51981,613.25387 C 366.81686,613.25387 396.59076,621.70478 418.8878,621.70478 C 418.8878,654.98394 416.44181,682.93291 416.44181,716.21207 L 430.71906,714.66475 C 430.71906,653.76387 432.40924,565.98315 432.40924,505.08227 C 404.78753,505.08227 411.0157,510.15281 383.39399,510.15281 C 383.39399,521.13494 381.70381,546.49576 381.70381,557.47789 C 398.34339,557.47789 392.10711,555.78771 408.7467,555.78771 C 407.58069,560.94474 409.79868,567.41845 405.36634,569.30915 C 383.73488,569.30915 372.91201,565.9288 351.28054,565.9288 C 351.28054,543.63176 361.42163,490.19533 361.42163,467.89829 C 400.35825,467.89829 425.58606,471.27864 464.52268,471.27864 C 464.52268,543.49444 459.45215,688.08384 459.45215,760.29964 C 437.15511,760.29964 414.14193,758.60946 391.84489,758.60946 C 391.84489,725.33029 393.53507,660.05449 393.53507,626.77532 C 382.55294,626.77532 390.99575,628.4655 380.01363,628.4655 C 380.01363,678.38426 378.32345,756.01578 378.32345,805.93453 C 339.38682,805.93453 275.28509,800.864 236.34846,800.864 C 236.34846,767.58483 238.03863,736.11264 238.03863,702.83348 C 227.0565,702.83348 220.28793,701.1433 209.3058,701.1433 C 209.3058,717.78289 210.99597,736.89933 210.99597,753.53892 C 172.05934,753.53892 104.57801,751.84873 65.641383,751.84873 C 66.8074,746.6917 83.181288,719.93581 87.613629,718.04511 C 103.58762,718.04511 105.4431,719.73529 121.4171,719.73529 C 121.4171,692.11357 119.72693,661.15776 119.72693,633.53604 C 108.7448,633.53604 105.35645,636.91641 94.374323,636.91641 C 94.374323,653.556 92.684149,676.0528 92.684149,692.69239 C 70.387106,692.69239 52.444848,691.00221 30.147804,691.00221 C 30.147804,552.22807 25.077289,314.28155 25.077289,175.50741 C 58.356458,175.50741 85.904951,174.9478 119.18411,174.9478 L 123.10728,160.29632 C 78.845979,160.29632 55.097756,163.0114 10.83646,163.0114 C 10.83646,606.62272 9.5060172,1044.1838 9.5060172,1487.7952 L 1371.7779,1491.1756 C 1371.7778,1463.5538 1369.013,1448.7807 1369.013,1421.159 C 1358.0308,1421.1589 1354.2199,1418.2862 1343.2377,1418.2862 C 1343.2376,1434.9257 1345.0957,1456.9147 1345.0957,1473.5544 C 1272.8798,1473.5647 1206.0464,1476.9243 1133.8307,1476.9347 C 1133.8307,1454.6376 1132.1406,1438.3856 1132.1406,1416.0886 C 1182.0594,1416.0783 1207.2906,1387.3654 1257.2095,1387.3555 C 1257.2094,1376.3733 1258.8996,1386.5065 1258.8996,1375.5244 C 1192.3412,1375.5345 1142.9249,1383.9649 1076.3666,1383.9753 C 1076.3665,1345.0386 1074.6764,1316.4313 1074.6764,1277.4947 C 1174.5139,1277.4843 1270.6099,1272.4344 1370.4476,1272.4242 C 1370.4475,1239.1554 1372.1377,1248.2271 1372.1377,1214.9583 C 1377.2947,1216.1243 1388.8382,1213.9063 1390.7289,1218.3387 C 1390.7288,1256.5994 1389.0389,1249.3749 1389.0389,1287.6356 C 1289.2013,1287.6355 1206.6262,1285.9454 1106.7888,1285.9455 C 1106.7887,1313.5671 1105.0986,1303.9583 1105.0986,1331.58 C 1116.0806,1331.5799 1116.088,1333.2702 1127.0702,1333.2702 C 1127.0702,1316.6409 1125.38,1327.9272 1125.3801,1311.298 C 1225.2176,1311.2877 1328.074,1297.7868 1427.9116,1297.7766 C 1427.9116,1236.8758 1424.5314,1252.1967 1424.5314,1191.2958 C 1396.9097,1191.2957 1365.9569,1192.986 1338.3352,1192.986 C 1338.3351,1226.2651 1340.0253,1222.2433 1340.0254,1255.5225 C 1301.0887,1255.5329 1255.5831,1269.0334 1216.6466,1269.0438 C 1216.6465,1219.1147 1218.3108,1190.2373 1218.3109,1140.3081 C 1207.3286,1140.308 1209.3099,1147.0689 1198.3278,1147.0689 C 1198.3277,1196.9876 1201.4355,1207.2939 1201.4355,1257.2127 C 1134.8772,1257.2127 1060.1077,1258.9027 993.54942,1258.9028 C 993.54932,1336.4432 995.2396,1375.7318 995.2396,1453.2723 C 1022.8613,1453.2722 1045.3646,1451.5821 1072.9864,1451.5821 C 1072.9863,1440.5999 1071.2962,1433.8314 1071.2962,1422.8493 C 1054.6566,1422.8584 1032.1613,1441.4309 1015.5218,1441.4411 C 1015.5217,1385.8649 1013.8316,1334.761 1013.8316,1279.1848 C 1018.9886,1280.3508 1035.6031,1276.4427 1037.4939,1280.8751 C 1037.4938,1330.1178 1039.184,1343.1832 1039.184,1392.4261 C 1055.8235,1392.4352 1095.2195,1409.3177 1111.8591,1409.3279 C 1111.859,1431.6145 1113.5492,1447.8873 1113.5493,1470.1741 C 941.49589,1470.1844 776.86104,1478.6145 604.80773,1478.6249 C 604.80773,1439.6883 601.42737,1390.7986 601.42737,1351.862 C 634.70654,1351.8517 679.70017,1343.4209 712.97934,1343.4112 C 712.97934,1310.1423 714.66952,1309.0733 714.66952,1275.8045 C 719.82654,1276.9705 724.61008,1278.1328 726.50078,1282.5652 C 726.50078,1337.4654 728.19097,1369.6392 728.19097,1424.5394 C 705.89393,1424.5498 679.5004,1439.7406 657.20336,1439.751 C 658.36937,1434.5932 664.60228,1407.841 669.03462,1405.9475 C 685.00862,1405.9378 703.76606,1404.2659 719.74006,1404.2573 C 719.74006,1393.2751 721.43024,1383.1261 721.43024,1372.144 C 693.80853,1372.1439 661.16253,1367.0735 633.54082,1367.0735 C 633.54082,1394.6951 631.85063,1430.7211 631.85063,1458.3428 C 759.30985,1458.3427 839.0473,1460.033 966.50653,1460.033 C 966.50653,1382.4925 968.19671,1338.1335 968.19671,1260.5931 C 957.21458,1260.593 955.5163,1262.2832 944.53417,1262.2832 C 944.53417,1328.8415 942.84399,1371.5024 942.84399,1438.0607 C 870.6282,1438.0711 832.52021,1444.811 760.30441,1444.8214 C 760.30441,1378.2527 761.99459,1332.2322 761.99459,1265.6635 C 734.37288,1265.6634 716.93851,1267.3537 689.3168,1267.3537 C 689.3168,1300.6328 687.62661,1283.0892 687.62661,1316.3685 C 648.68998,1316.3789 581.20765,1328.1892 542.27102,1328.1996 C 542.27102,1278.2705 549.03175,1280.0991 549.03175,1230.17 C 538.04962,1230.1699 514.37898,1233.5504 503.39685,1233.5504 C 503.39685,1300.1086 501.70667,1310.6562 501.70667,1377.2146 C 418.50875,1377.2146 370.25157,1378.9046 287.05365,1378.9047 C 287.05365,1389.8867 285.36347,1378.0637 285.36347,1389.0458 C 379.54352,1389.0457 443.02044,1390.7359 537.20049,1390.7359 C 537.20049,1374.1067 535.5103,1370.1813 535.5103,1353.5522 C 540.66732,1354.7182 569.11341,1355.8805 571.00411,1360.3129 C 571.00411,1398.5735 576.07465,1436.9838 576.07465,1475.2445 C 453.9401,1475.2549 290.87637,1480.3047 168.74182,1480.3151 C 168.74182,1463.6651 170.43198,1451.3303 170.43198,1434.6804 C 159.44986,1434.6803 164.51245,1432.9903 153.53032,1432.9903 C 153.53032,1449.6298 155.22049,1455.2246 155.22049,1471.8642 C 132.92345,1471.8746 84.558083,1481.9948 62.261042,1482.0052 C 62.261042,1465.3552 63.951212,1446.2598 63.951212,1429.6099 C 52.969086,1429.6098 66.48249,1427.9197 55.500364,1427.9197 C 55.500364,1444.5592 57.190533,1450.154 57.190533,1466.7937 C 51.947086,1466.0565 28.373744,1465.8494 24.826029,1463.4134 C 24.826029,1441.4491 21.696946,1429.6019 21.696946,1407.6376 C 43.99399,1407.6376 77.1478,1412.7082 99.444844,1412.7082 C 99.444844,1429.3374 101.13502,1445.0939 101.13502,1461.7231 C 112.11714,1461.723 122.26619,1449.892 133.24832,1449.892 C 133.24832,1433.2627 134.93849,1434.4079 134.93849,1417.7787 C 157.23553,1417.7787 197.14976,1411.018 219.4468,1411.018 C 219.4468,1427.6473 224.5173,1431.5726 224.5173,1448.2018 C 335.33693,1448.2018 419.62013,1446.5115 530.43976,1446.5116 C 530.43976,1435.5293 532.12994,1437.2117 532.12994,1426.2296 C 432.29243,1426.2398 331.11547,1443.1209 231.27796,1443.1313 C 231.27796,1426.4813 239.72879,1385.4136 239.72879,1368.7637 C 206.44962,1368.7734 169.90784,1380.5846 136.62867,1380.5949 C 136.62867,1297.3866 138.31883,1269.4336 138.31883,1186.2253 C 127.3367,1186.2252 117.18766,1194.6762 106.20553,1194.6762 C 106.20553,1277.8741 107.89571,1290.6362 107.89571,1373.8342 C 85.598669,1373.8445 45.684161,1382.2747 23.387118,1382.2851 C 23.387118,1260.1401 26.713227,1184.987 26.713227,1062.842 C 49.010271,1062.842 80.528148,1057.7715 102.8252,1057.7715 C 102.8252,1080.0686 97.75467,1133.5049 97.75467,1155.802 C 92.511224,1155.0648 70.879267,1141.3363 67.331552,1138.9002 C 67.331552,1122.583 69.021722,1119.7235 69.021722,1103.4064 C 58.039596,1103.4063 54.040315,1105.0965 43.058189,1105.0965 C 43.058189,1215.9162 43.669174,1237.6619 43.669174,1348.4816 C 54.6513,1348.4815 63.110113,1346.7915 74.092239,1346.7915 C 74.092239,1263.6039 75.782412,1264.3423 75.782412,1181.1548 C 92.422001,1181.1446 125.05958,1177.7834 141.69917,1177.7744 C 141.69917,1066.9547 140.009,977.6007 140.009,866.78106 C 112.38728,866.78106 67.910545,865.09088 40.288834,865.09088 C 40.288834,925.99176 38.598663,942.78483 38.598663,1003.6857 C 49.580789,1003.6857 69.870808,1005.3759 80.852934,1005.3759 C 80.852934,955.45714 82.543107,935.29181 82.543107,885.37305 L 107.33894,889.61576 C 107.33894,944.52639 111.27606,989.33943 111.27606,1044.2501 C 88.979016,1044.2501 50.754675,1045.9402 28.457632,1045.9402 C 28.457632,973.72445 26.767461,928.85577 26.767461,856.63998 C 65.704089,856.63998 119.66419,858.33016 158.60082,858.33016 C 158.60082,941.52808 156.91066,989.78523 156.91066,1072.9831 C 173.55025,1072.9831 206.18755,1071.293 222.82714,1071.293 C 222.82714,1154.4909 221.13697,1187.5361 221.13697,1270.7341 C 237.77657,1270.7289 260.273,1274.0857 276.91257,1274.1144 C 276.91257,1290.7436 275.22239,1287.9081 275.22239,1304.5373 C 286.20452,1304.5372 292.25391,1306.2275 303.23604,1306.2275 C 303.23604,1228.687 312.40637,1223.2013 312.40637,1145.6609 C 301.42425,1145.6608 284.51433,1143.9708 273.5322,1143.9708 C 273.5322,1193.8894 271.84202,1214.0546 271.84202,1263.9734 C 266.59858,1263.2362 253.41751,1256.2684 249.86979,1253.8324 C 249.86979,1198.5786 248.17962,1175.562 248.17962,1120.3082 C 270.47666,1120.3082 298.56024,1115.2376 320.85728,1115.2376 C 320.85728,1198.4355 314.09655,1224.7196 314.09655,1307.9176 C 325.07868,1307.9175 341.98859,1302.8472 352.97072,1302.8472 C 352.97072,1219.6492 354.66091,1193.365 354.66091,1110.1671 C 387.94008,1110.167 395.74972,1108.4768 429.02888,1108.4769 C 429.02888,1097.4947 434.09943,1089.0358 434.09943,1078.0537 C 367.54109,1078.0537 313.0478,1079.7438 246.48945,1079.7439 C 246.48945,1063.1042 244.79929,1059.1994 244.79929,1042.5599 C 228.1597,1042.5599 188.76174,1040.8697 172.12215,1040.8697 C 172.12215,957.67178 173.81232,890.82263 173.81232,807.62471 C 123.89357,807.62471 69.925529,812.69526 20.006774,812.69526 C 20.006774,790.39822 18.316603,738.65197 18.316603,716.35493 C 23.473629,717.52094 40.088302,730.51458 41.979004,734.94692 C 41.979004,750.92092 45.359344,751.08636 45.359344,767.06036 C 95.278098,767.06036 164.45755,768.75054 214.3763,768.75054 C 214.3763,851.94846 212.68613,923.86815 212.68613,1007.0661 C 229.32572,1007.0661 253.51225,1008.7562 270.15184,1008.7562 C 270.15184,1025.3959 268.46166,1052.9632 268.46166,1069.6028 C 296.08338,1069.6028 332.10973,1067.9126 359.73145,1067.9126 C 359.73145,1007.0117 358.04127,969.93647 358.04127,909.03559 C 347.05914,909.03559 348.74121,905.65523 337.75909,905.65523 C 337.75909,955.57399 339.44928,989.26076 339.44928,1039.1795 C 334.29225,1038.0135 295.70508,1030.0904 293.81438,1025.658 C 293.81438,1009.684 295.50456,995.99718 295.50456,980.02317 C 278.86497,980.02317 259.74871,985.09372 243.10913,985.09372 C 243.10913,929.51751 241.41896,888.55366 241.41896,832.97744 C 307.9773,832.97744 375.99199,831.28725 442.55033,831.28725 C 442.55033,820.30512 440.86015,830.43811 440.86015,819.45599 C 424.22056,819.45599 411.86485,817.76581 395.22526,817.76581 C 396.39127,812.60878 399.24383,774.02161 403.67616,772.13091 C 425.30763,772.13091 444.65283,774.64832 466.2843,774.64832 C 466.2843,796.94536 466.32001,840.27642 466.32001,862.57346 C 399.76167,862.57346 331.63964,861.71052 265.0813,861.71052 C 265.0813,905.97181 263.39112,920.55028 263.39112,964.81157 C 274.37324,964.81157 299.73407,963.12139 310.71619,963.12139 C 310.71619,929.84223 309.02601,925.41295 309.02601,892.13378 C 331.32305,892.13378 349.26568,893.82396 371.56272,893.82396 C 371.56272,960.3823 369.87253,999.66404 369.87253,1066.2224 C 414.13382,1066.2224 437.16321,1064.5323 481.42451,1064.5323 C 481.42451,1053.5501 478.04414,1048.4715 478.04414,1037.4894 C 444.76497,1037.4894 430.1946,1035.7991 396.91544,1035.7991 C 396.91544,980.22294 398.60562,951.09035 398.60562,895.51414 C 431.88478,895.51414 443.07479,900.58469 476.35396,900.58469 C 476.35396,867.30552 482.10888,808.79044 482.10888,775.51127 C 521.04551,775.51127 597.98455,765.37018 636.92118,765.37018 C 636.92118,782.00977 635.231,821.40839 635.231,838.04798 C 735.06851,838.04798 785.54031,836.3578 885.37782,836.3578 C 885.37782,875.29443 887.06801,910.66331 887.06801,949.59994 C 803.87009,949.59994 769.13435,951.29012 685.93643,951.29012 C 685.93643,1012.191 691.00698,1056.0269 691.00698,1116.9279 C 768.54745,1116.9278 779.10428,1118.618 856.64474,1118.618 C 856.64474,1101.9784 851.5742,1077.7915 851.5742,1061.1519 C 890.51082,1061.1519 949.5422,1059.4617 988.47888,1059.4617 C 988.47888,1081.7691 996.92968,1140.2552 996.92978,1162.5627 C 974.63269,1162.5627 941.47849,1164.253 919.18145,1164.253 C 919.92581,1158.9967 918.43241,1128.9401 920.87163,1125.3787 C 937.17842,1125.3786 953.5801,1127.069 969.88689,1127.069 C 969.88689,1116.0868 971.57707,1104.2474 971.57707,1093.2653 C 943.95535,1093.2652 904.54863,1094.9555 876.92691,1094.9555 C 876.92691,1111.5951 883.68764,1140.8525 883.68764,1157.4922 C 800.48972,1157.4922 775.89508,1159.1823 692.69716,1159.1824 C 692.69716,1170.1644 694.38734,1160.0315 694.38734,1171.0137 C 821.84656,1171.0136 889.75269,1169.3235 1017.212,1169.3235 C 1017.2119,1125.0621 1018.9021,1078.3702 1018.9021,1034.109 C 924.72204,1034.109 866.31572,1032.4188 772.13568,1032.4188 C 772.13568,1043.401 770.4455,1041.7189 770.4455,1052.701 C 803.72466,1052.701 813.22448,1051.0108 846.50365,1051.0108 C 845.33764,1056.1678 832.34399,1098.1354 827.91166,1100.0261 C 789.64062,1100.026 786.74418,1101.7162 748.47314,1101.7162 C 748.47314,1079.4191 750.16332,1032.7435 750.16332,1010.4464 C 850.00083,1010.4464 912.30386,1012.1366 1012.1414,1012.1366 C 1012.1413,984.5149 1008.761,975.53148 1008.761,947.90976 C 992.12144,947.90976 979.76573,946.21958 963.12616,946.21958 C 963.12616,923.92254 964.81634,912.74064 964.81634,890.4436 C 1014.7351,890.4436 1080.5317,902.27486 1130.4505,902.27486 C 1130.4504,891.29274 1128.7603,886.21409 1128.7603,875.23197 C 1112.1207,875.23197 1094.6963,873.54179 1078.0567,873.54179 C 1079.2227,868.38476 1078.6947,843.31905 1083.1271,841.42835 C 1104.7585,841.42835 1125.7202,843.11852 1147.3517,843.11852 C 1147.3517,909.67687 1145.6614,947.26845 1145.6615,1013.8268 C 1189.9228,1013.8268 1219.7086,1015.5169 1263.97,1015.5169 C 1263.9699,971.25569 1265.6601,951.6067 1265.6601,907.34541 C 1238.0384,907.34541 1223.9868,910.72577 1196.3652,910.72577 C 1196.3651,938.34748 1191.2947,949.02113 1191.2947,976.64285 C 1202.2768,976.64285 1198.9039,974.95266 1209.8861,974.95266 C 1209.8861,958.31307 1211.5761,947.64754 1211.5762,931.00795 C 1216.7332,932.17396 1235.0373,935.02652 1236.9281,939.45886 C 1236.928,961.09032 1238.6181,973.60334 1238.6181,995.23481 C 1216.321,995.23481 1201.761,993.54463 1179.464,993.54463 C 1179.4639,954.608 1181.154,927.69005 1181.154,888.75342 C 1220.0907,888.75342 1247.0049,887.06323 1285.9415,887.06323 C 1285.9414,936.98199 1287.6316,967.28841 1287.6316,1017.2072 C 1315.2533,1017.2072 1349.5863,1018.8973 1377.208,1018.8973 C 1377.2079,1007.9152 1378.8981,1002.8366 1378.8981,991.85445 C 1362.2585,991.85445 1331.313,990.16426 1314.6735,990.16426 C 1314.6734,940.24551 1312.9835,931.91145 1312.9835,881.99269 C 1263.0646,881.99269 1232.7629,883.68287 1182.8442,883.68287 C 1182.8441,850.40371 1184.5342,778.36718 1184.5343,745.08801 C 1173.5521,745.08801 1166.7844,746.77819 1155.8023,746.77819 C 1155.8023,763.41778 1160.8725,812.95748 1160.8726,829.59707 C 1127.5934,829.59707 1077.5335,827.90689 1044.2543,827.90689 C 1044.2543,844.54648 1042.5641,853.52183 1042.5642,870.16142 C 1009.285,870.16142 974.43297,868.47124 941.1538,868.47124 C 941.1538,912.73253 939.46362,917.16992 939.46362,961.43121 C 956.10321,961.43121 981.98033,959.74104 998.61997,959.74104 C 997.45387,964.89806 981.0799,981.51283 976.64761,983.40353 C 877.47564,983.40353 845.95488,981.71335 746.78296,981.71335 C 746.78296,1014.9925 740.02223,1073.5076 740.02223,1106.7868 C 734.86521,1105.6207 719.94058,1079.1056 718.04987,1074.6734 C 718.04987,1036.4022 716.3597,996.32189 716.3597,958.05085 C 799.55762,958.05085 814.01117,956.36067 897.20909,956.36067 C 897.20909,906.44191 895.51891,904.86854 895.51891,854.94979 C 928.79808,854.94979 977.172,851.56943 1010.4513,851.56943 C 1010.4513,834.92984 1007.0708,787.08032 1007.0709,770.44073 C 1040.35,770.44073 1090.4107,763.68001 1123.69,763.68001 C 1123.69,747.04042 1121.9997,722.85343 1121.9998,706.21384 C 1144.2968,706.21384 1170.6878,707.90402 1192.9849,707.90402 C 1192.9848,741.18319 1194.6749,816.60008 1194.675,849.87925 C 1205.6571,849.87925 1217.4953,848.18906 1228.4774,848.18906 C 1228.4773,803.92777 1230.1676,731.88314 1230.1676,687.62184 C 1113.6904,687.62184 976.50218,689.31202 860.0251,689.31202 C 860.0251,650.37539 849.88402,586.27343 849.88402,547.33681 C 916.44236,547.33681 991.2169,550.71716 1057.7752,550.71716 C 1057.7751,506.45587 1056.0852,431.03373 1056.0852,386.77244 C 1028.4634,386.77244 1014.4103,396.91317 986.7887,396.91317 C 986.7886,424.53488 978.33779,457.17838 978.33779,484.8001 C 989.31982,484.8001 994.39857,483.10992 1005.3807,483.10992 C 1005.3807,466.47033 1003.6904,454.11565 1003.6905,437.47606 C 1008.8475,438.64207 1025.4623,436.42396 1027.3531,440.8563 C 1027.353,462.48776 1029.0432,486.83117 1029.0432,508.46264 C 1006.7461,508.46264 983.73304,511.84299 961.43598,511.84299 C 961.43598,472.90636 973.26724,413.87823 973.26724,374.9416 C 1006.5464,374.9416 1032.9467,376.63173 1066.2259,376.63173 C 1066.2258,332.37043 1064.5357,285.68339 1064.5357,241.4221 C 1053.5535,241.4221 1041.7155,243.11222 1030.7334,243.11222 C 1030.7334,259.75181 1032.4234,272.10588 1032.4235,288.74547 C 999.14424,288.74547 965.98206,290.43559 932.7029,290.43559 C 932.7029,301.41771 931.01272,296.35466 931.01272,307.33679 C 964.29188,307.33679 1000.8343,312.40715 1034.1136,312.40715 C 1032.9475,317.56417 1030.0952,325.72753 1025.6629,327.61823 C 987.39176,327.61823 937.17031,347.89968 898.89927,347.89968 C 898.89927,325.60264 907.35018,285.6907 907.35018,263.39366 C 940.62934,263.39366 989.00327,265.08378 1022.2825,265.08378 C 1022.2824,231.80461 1020.5923,168.22368 1020.5924,134.94452 C 1025.7494,136.11053 1049.124,138.96278 1051.0147,143.39511 C 1051.0147,159.36911 1052.7049,188.26544 1052.7049,204.23944 C 1063.6869,204.23944 1058.624,205.92957 1069.6061,205.92957 C 1069.606,178.30786 1067.916,128.76383 1067.916,101.14211 C 1040.2943,101.14211 1027.9318,91.001387 1000.3102,91.001387 C 1000.3101,124.28055 1002.0002,204.76269 1002.0003,238.04186 C 968.72111,238.04186 906.82572,236.35174 873.54656,236.35174 C 873.54656,313.89221 875.23673,410.63999 875.23673,488.18046 C 886.21886,488.18046 901.4386,486.49028 912.42073,486.49028 C 912.42073,453.21111 914.1109,399.77017 914.1109,366.491 C 919.26793,367.65701 925.74165,377.26975 927.63236,381.70208 C 927.63236,419.97313 929.32254,465.12105 929.32254,503.39209 C 907.0255,503.39209 875.61563,506.77245 853.31859,506.77245 C 853.31859,473.49328 854.95456,431.88245 854.95456,398.60329 C 838.31498,398.60329 831.02979,400.29341 814.39021,400.29341 C 814.39021,367.01424 819.46075,325.40487 819.46075,292.12571 C 769.542,292.12571 756.13737,293.81582 706.21861,293.81582 C 706.21861,271.51878 707.90879,224.84637 707.90879,202.54933 C 724.54838,202.54933 741.97464,200.85921 758.61422,200.85921 C 758.61422,173.23749 756.92404,123.69346 756.92404,96.071748 C 745.94192,96.071748 754.38473,97.761868 743.4026,97.761868 L 741.71241,119.73343 z M 782.27676,118.04331 C 782.27676,150.98969 785.65713,176.36343 785.65713,209.30981 C 769.01754,209.30981 746.52074,239.73198 729.88115,239.73198 C 729.88115,250.7141 731.57133,237.20045 731.57133,248.18258 C 781.49008,248.18258 783.06345,251.56281 832.98221,251.56281 C 832.98221,284.84198 829.60184,321.38099 829.60184,354.66016 C 840.58396,354.66016 852.42334,352.97004 863.40547,352.97004 C 863.40547,303.05128 861.71528,227.11628 861.71528,177.19753 C 894.99445,177.19753 921.39609,178.88765 954.67525,178.88765 C 954.67525,151.26593 952.98507,142.28479 952.98507,114.66308 C 942.00295,114.66308 936.92429,116.35319 925.94217,116.35319 C 925.94217,132.99278 937.77344,141.96661 937.77344,158.6062 C 887.85469,158.6062 860.9286,156.91608 811.00985,156.91608 C 811.00985,167.8982 812.70003,183.1166 812.70003,194.09873 C 829.33961,194.09873 814.65244,192.40861 831.29203,192.40861 C 830.12601,197.56564 830.65382,222.63019 826.22148,224.5209 C 804.59002,224.5209 817.42968,222.83078 795.79821,222.83078 C 795.79821,200.53374 794.10804,150.48108 794.10804,128.18404 C 844.02679,128.18404 843.90997,129.87416 893.82872,129.87416 C 893.82872,118.89203 892.13855,98.603272 892.13855,87.621146 C 831.23767,87.621146 844.86783,89.311267 783.96695,89.311267 L 782.27676,118.04331 z M 60.570873,351.27992 C 60.570873,445.12718 53.810193,558.28078 53.810193,652.12804 C 64.792319,652.12804 66.490461,653.81822 77.472587,653.81822 C 77.472587,637.17863 79.16276,636.65419 79.16276,620.0146 C 95.802348,620.0146 113.22838,618.32442 129.86797,618.32442 C 129.86797,607.34229 131.55814,578.6011 131.55814,567.61898 C 114.91855,567.61898 100.87287,564.23862 84.233281,564.23862 C 84.233281,497.68027 85.923454,404.3173 85.923454,337.75895 C 74.941328,337.75895 69.862829,329.30836 58.880703,329.30836 L 60.570873,351.27992 z M 161.98116,586.21097 C 161.98116,630.13947 160.29099,679.18715 160.29099,723.11566 C 171.27311,723.11566 183.11218,721.42548 194.09431,721.42548 C 194.09431,704.78589 189.02381,672.14799 189.02381,655.5084 C 211.32085,655.5084 261.37626,657.19858 283.6733,657.19858 C 283.6733,690.47775 261.70095,755.75356 261.70095,789.03272 C 289.32266,789.03272 313.51774,790.7229 341.13946,790.7229 C 341.13946,763.10119 342.82964,722.00428 342.82964,694.38257 L 326.03497,689.52631 C 326.03497,706.1659 332.68855,733.51896 332.68855,750.15855 C 327.53152,748.99254 305.84617,741.06944 303.95547,736.6371 C 303.95547,704.02351 305.64564,664.45945 305.64564,631.84586 C 272.36648,631.84586 210.47182,630.15568 177.19265,630.15568 C 177.19265,613.51609 175.50248,589.32911 175.50248,572.68952 C 164.52035,572.68952 174.65345,570.99934 163.67133,570.99934 L 161.98116,586.21097 z"
       id="rect2383"
       style="fill:#000000;fill-opacity:1;fill-rule:nonzero;stroke:none;stroke-width:3.5;stroke-linecap:square;stroke-linejoin:miter;stroke-miterlimit:4;stroke-opacity:1" />
  </g>
</svg>
